<svg width="138" height="23" viewBox="0 0 138 23" fill="none" xmlns="http://www.w3.org/2000/svg">
<path d="M10.0767 2.71993C10.4183 1.89864 11.5817 1.89864 11.9233 2.71993L13.675 6.9314C13.819 7.27764 14.1446 7.51421 14.5184 7.54418L19.065 7.90868C19.9517 7.97976 20.3112 9.08627 19.6357 9.66494L16.1716 12.6323C15.8868 12.8762 15.7624 13.259 15.8495 13.6238L16.9078 18.0605C17.1142 18.9257 16.1729 19.6096 15.4138 19.1459L11.5213 16.7684C11.2012 16.5729 10.7988 16.5729 10.4787 16.7684L6.58619 19.1459C5.82709 19.6096 4.88583 18.9257 5.09222 18.0605L6.15055 13.6238C6.23756 13.259 6.11318 12.8762 5.8284 12.6323L2.36434 9.66494C1.6888 9.08627 2.04832 7.97976 2.93498 7.90868L7.48162 7.54418C7.85541 7.51421 8.18102 7.27764 8.32503 6.93141L10.0767 2.71993Z" fill="#FF2D23"/>
<path d="M39.0767 2.71993C39.4183 1.89864 40.5817 1.89864 40.9233 2.71993L42.675 6.9314C42.819 7.27764 43.1446 7.51421 43.5184 7.54418L48.065 7.90868C48.9517 7.97976 49.3112 9.08627 48.6357 9.66494L45.1716 12.6323C44.8868 12.8762 44.7624 13.259 44.8495 13.6238L45.9078 18.0605C46.1142 18.9257 45.1729 19.6096 44.4138 19.1459L40.5213 16.7684C40.2012 16.5729 39.7988 16.5729 39.4787 16.7684L35.5862 19.1459C34.8271 19.6096 33.8858 18.9257 34.0922 18.0605L35.1505 13.6238C35.2376 13.259 35.1132 12.8762 34.8284 12.6323L31.3643 9.66494C30.6888 9.08627 31.0483 7.97976 31.935 7.90868L36.4816 7.54418C36.8554 7.51421 37.181 7.27764 37.325 6.93141L39.0767 2.71993Z" fill="#FF2D23"/>
<path d="M68.0767 2.71993C68.4183 1.89864 69.5817 1.89864 69.9233 2.71993L71.675 6.9314C71.819 7.27764 72.1446 7.51421 72.5184 7.54418L77.065 7.90868C77.9517 7.97976 78.3112 9.08627 77.6357 9.66494L74.1716 12.6323C73.8868 12.8762 73.7624 13.259 73.8495 13.6238L74.9078 18.0605C75.1142 18.9257 74.1729 19.6096 73.4138 19.1459L69.5213 16.7684C69.2012 16.5729 68.7988 16.5729 68.4787 16.7684L64.5862 19.1459C63.8271 19.6096 62.8858 18.9257 63.0922 18.0605L64.1505 13.6238C64.2376 13.259 64.1132 12.8762 63.8284 12.6323L60.3643 9.66494C59.6888 9.08627 60.0483 7.97976 60.935 7.90868L65.4816 7.54418C65.8554 7.51421 66.181 7.27764 66.325 6.93141L68.0767 2.71993Z" fill="#FF2D23"/>
<path d="M97.0767 2.71993C97.4183 1.89864 98.5817 1.89864 98.9233 2.71993L100.675 6.9314C100.819 7.27764 101.145 7.51421 101.518 7.54418L106.065 7.90868C106.952 7.97976 107.311 9.08627 106.636 9.66494L103.172 12.6323C102.887 12.8762 102.762 13.259 102.849 13.6238L103.908 18.0605C104.114 18.9257 103.173 19.6096 102.414 19.1459L98.5213 16.7684C98.2012 16.5729 97.7988 16.5729 97.4787 16.7684L93.5862 19.1459C92.8271 19.6096 91.8858 18.9257 92.0922 18.0605L93.1505 13.6238C93.2376 13.259 93.1132 12.8762 92.8284 12.6323L89.3643 9.66494C88.6888 9.08627 89.0483 7.97976 89.935 7.90868L94.4816 7.54418C94.8554 7.51421 95.181 7.27764 95.325 6.93141L97.0767 2.71993Z" fill="#FF2D23"/>
<path d="M126.077 2.71993C126.418 1.89864 127.582 1.89864 127.923 2.71993L129.675 6.9314C129.819 7.27764 130.145 7.51421 130.518 7.54418L135.065 7.90868C135.952 7.97976 136.311 9.08627 135.636 9.66494L132.172 12.6323C131.887 12.8762 131.762 13.259 131.849 13.6238L132.908 18.0605C133.114 18.9257 132.173 19.6096 131.414 19.1459L127.521 16.7684C127.201 16.5729 126.799 16.5729 126.479 16.7684L122.586 19.1459C121.827 19.6096 120.886 18.9257 121.092 18.0605L122.151 13.6238C122.238 13.259 122.113 12.8762 121.828 12.6323L118.364 9.66494C117.689 9.08627 118.048 7.97976 118.935 7.90868L123.482 7.54418C123.855 7.51421 124.181 7.27764 124.325 6.93141L126.077 2.71993Z" fill="white"/>
</svg>
